# xmcd CD database file
#
# Track frame offsets:
#	150
#	13235
#	31625
#	47140
#	57870
#	72505
#	87607
#	107725
#	119477
#	135830
#	149332
#
# Disc length: 2204 seconds
#
# Revision: 5
# Processed by: cddbd v1.5.2PL0 Copyright (c) Steve Scherf et al.
# Submitted via: CDex 1.79
#
DISCID=9a089a0b
DTITLE=Jeff Bates - Rainbow Man
DYEAR=2003
DGENRE=Country
TTITLE0=Country Enough
TTITLE1=The Love Song
TTITLE2=Long, Slow Kisses
TTITLE3=Lovin' Like That
TTITLE4=I Wanna Make You Cry
TTITLE5=Your Lovin' Talks To Me
TTITLE6=My Mississippi
TTITLE7=Already Spent
TTITLE8=Rainbow Man
TTITLE9=My Inlaws Are Outlaws
TTITLE10=The Wings Of Mama's Prayers
EXTD=YEAR: 2003
EXTT0=
EXTT1=
EXTT2=
EXTT3=
EXTT4=
EXTT5=
EXTT6=
EXTT7=
EXTT8=
EXTT9=
EXTT10=
PLAYORDER=
